#!OML:ASF H:\Terrain\Patient Classification 1\Animal1\Tuesday\Animal1.ASF
:FULLY-SPECIFIED
:DEGREES
2297
root 2.72782 16.8153 31.9759 -369.622 69.3832 702.251
lowerback -1.05413 0.988228 3.38283
upperback -3.50452 1.44062 1.65313
thorax -2.97439 0.675084 -0.217115
lowerneck -8.39566 4.87369 -1.86167
upperneck 25.0283 8.15805 -1.49298
head 9.23293 3.69733 0.677019
rclavicle 9.41276e-015 -9.74045e-015
rhumerus -39.4091 5.2772 -77.7913
rradius 24.6665
rwrist -11.8967
rhand -15.7393 28.755
rfingers 7.12502
rthumb 10.4517 -0.965169
lclavicle 9.41276e-015 -9.74045e-015
lhumerus -42.3642 11.634 76.0962
lradius 26.6875
lwrist -31.4372
lhand 3.88105 44.5463
lfingers 7.12502
lthumb 29.3021 72.2577
rfemur -19.7216 14.3906 24.6648
rtibia 28.3673
rfoot -17.566 -28.7076
rtoes 24.1957
lfemur -29.0705 2.21148 -18.7164
ltibia 69.0643
lfoot -0.976679 0.301435
ltoes -1.34295
2298
root 2.79165 16.8074 32.0465 -368.914 70.1154 702.955
lowerback -0.958957 1.0394 3.04959
upperback -3.52041 1.50123 1.39628
thorax -3.04265 0.708064 -0.298005
lowerneck -8.0649 4.62249 -2.02021
upperneck 25.1368 7.80694 -1.33942
head 9.19535 3.54384 0.711129
rclavicle -1.13121e-014 -2.78299e-015
rhumerus -39.1007 5.46695 -77.8614
rradius 24.7184
rwrist -11.6617
rhand -19.9658 28.6611
rfingers 7.12502
rthumb 6.37281 -1.22299
lclavicle -1.13121e-014 -2.78299e-015
lhumerus -42.1622 12.9474 75.1372
lradius 25.9395
lwrist -33.166
lhand 4.17344 44.0404
lfingers 7.12502
lthumb 29.5813 71.7027
rfemur -19.6249 14.4657 24.437
rtibia 28.8365
rfoot -13.8943 -30.6088
rtoes 12.673
lfemur -30.2811 2.15022 -19.3575
ltibia 69.0579
lfoot -1.68964 0.434648
ltoes -1.11468
2299
root 2.83647 16.7986 32.1215 -371.228 70.5157 700.284
lowerback -0.243338 1.18048 3.64672
upperback -4.01502 1.76595 1.54806
thorax -3.94444 0.812157 -0.50186
lowerneck -7.47288 4.44544 -2.19716
upperneck 25.6261 7.53721 -0.920738
head 9.23048 3.45966 0.847696
rclavicle 2.31025e-014 1.90833e-014
rhumerus -39.4088 6.0847 -77.783
rradius 24.9746
rwrist -11.4837
rhand -19.5709 29.112
rfingers 7.12502
rthumb 6.7541 -0.760312
lclavicle 2.31025e-014 1.90833e-014
lhumerus -43.0643 13.8362 74.1197
lradius 25.806
lwrist -34.422
lhand 3.67735 42.6906
lfingers 7.12502
lthumb 29.1076 70.4358
rfemur -19.8546 14.9547 25.464
rtibia 29.3359
rfoot -13.7704 -31.4526
rtoes 11.8507
lfemur -31.9884 2.78994 -18.5797
ltibia 68.9205
lfoot -1.94856 -0.338547
ltoes -0.711455
2300
root 2.94202 16.8082 32.1854 -370.822 70.9237 700.96
lowerback -0.959386 1.42539 3.54211
upperback -3.39387 2.01459 1.34237
thorax -2.88096 0.95317 -0.633535
lowerneck -7.77672 4.35178 -2.3805
upperneck 25.9592 7.38959 -0.577233
head 9.38332 3.40155 0.997589
rclavicle -1.12973e-014 -2.127e-014
rhumerus -38.2641 5.66951 -77.2165
rradius 24.8872
rwrist -10.5479
rhand -16.3276 29.9718
rfingers 7.12502
rthumb 9.88409 0.223806
lclavicle -1.12973e-014 -2.127e-014
lhumerus -42.5991 13.0707 74.6467
lradius 26.2954
lwrist -33.4253
lhand 3.28935 42.3441
lfingers 7.12502
lthumb 28.737 70.1528
rfemur -19.1205 14.9693 25.4371
rtibia 29.6872
rfoot -12.7932 -32.2485
rtoes 7.33999
lfemur -32.3148 2.86209 -19.2223
ltibia 68.1445
lfoot -2.61537 -0.784467
ltoes 5.12415
2301
root 3.02987 16.8073 32.2439 -369.949 71.571 702.057
lowerback -1.07552 1.46566 3.19674
upperback -3.17815 2.04257 1.14463
thorax -2.59438 0.976601 -0.637598
lowerneck -7.51102 4.12736 -2.81187
upperneck 26.1252 7.12041 -0.390771
head 9.37115 3.26242 1.10199
rclavicle 3.43711e-014 1.19271e-014
rhumerus -37.933 6.72757 -77.6386
rradius 25.4233
rwrist -12.556
rhand -15.6097 29.6306
rfingers 7.12502
rthumb 10.5766 -0.0832939
lclavicle 3.43711e-014 1.19271e-014
lhumerus -42.6965 12.3748 75.0386
lradius 26.9667
lwrist -32.4239
lhand 3.84075 42.6278
lfingers 7.12502
lthumb 29.2636 70.3459
rfemur -18.501 14.8713 25.1705
rtibia 29.9094
rfoot -9.57617 -33.5121
rtoes -1.87878
lfemur -32.7334 2.496 -20.0206
ltibia 67.1895
lfoot -3.35751 -1.32053
ltoes 13.392
2302
root 3.12154 16.8198 32.3052 -369.081 72.147 703.142
lowerback -1.10281 1.49637 2.78316
upperback -3.06383 2.07033 1.0113
thorax -2.46799 0.999529 -0.541279
lowerneck -7.53881 4.2689 -2.9695
upperneck 26.9435 7.34079 0.00236205
head 9.64219 3.38959 1.30713
rclavicle 3.75222e-014 1.61016e-014
rhumerus -37.469 6.76261 -77.0521
rradius 25.404
rwrist -11.0134
rhand -13.8551 29.7418
rfingers 7.12502
rthumb 12.2688 0.121687
lclavicle 3.75222e-014 1.61016e-014
lhumerus -43.0979 12.7591 74.75
lradius 27.3421
lwrist -32.4953
lhand 4.37992 42.5163
lfingers 7.12502
lthumb 29.7783 70.1435
rfemur -17.9291 14.8074 24.9266
rtibia 30.1249
rfoot 2.29242 -33.601
rtoes -24.3972
lfemur -32.9708 2.48926 -20.7779
ltibia 65.9953
lfoot -4.2046 -1.78435
ltoes 12.2255
2303
root 3.20568 16.8199 32.3683 -368.948 72.6264 703.22
lowerback -1.30908 1.56987 2.60961
upperback -3.00415 2.15732 0.979572
thorax -2.29256 1.04895 -0.470316
lowerneck -7.0057 4.12963 -3.1717
upperneck 27.0738 7.16319 0.117964
head 9.57819 3.31423 1.34976
rclavicle 1.05884e-014 -3.57812e-015
rhumerus -37.3336 7.84748 -77.5915
rradius 25.8416
rwrist -12.4519
rhand -16.0706 28.8782
rfingers 7.12502
rthumb 10.132 -0.857851
lclavicle 1.05884e-014 -3.57812e-015
lhumerus -43.2367 12.9679 74.6218
lradius 27.4325
lwrist -32.388
lhand 4.54268 42.5152
lfingers 7.12502
lthumb 29.9337 70.1145
rfemur -17.5734 14.7458 25.0308
rtibia 30.2604
rfoot 19.0203 -23.7769
rtoes -38.0163
lfemur -33.5719 2.69867 -21.2084
ltibia 64.8629
lfoot -5.08338 -1.82862
ltoes 0.94093
2304
root 3.27494 16.8208 32.4295 -370.152 72.9681 701.795
lowerback -1.3164 1.74912 2.982
upperback -3.0447 2.39734 0.888875
thorax -2.30611 1.15937 -0.7723
lowerneck -6.68181 3.85535 -3.03128
upperneck 27.5059 6.74573 0.319201
head 9.67473 3.16335 1.35741
rclavicle 2.4261e-014 -1.82882e-014
rhumerus -37.0673 7.16454 -77.302
rradius 25.7224
rwrist -9.47795
rhand -19.2573 29.0696
rfingers 7.12502
rthumb 7.05676 -0.792723
lclavicle 2.4261e-014 -1.82882e-014
lhumerus -43.0328 13.1409 74.2313
lradius 27.2804
lwrist -32.5709
lhand 4.64482 42.2005
lfingers 7.12502
lthumb 30.0311 69.7821
rfemur -17.3356 14.8322 25.6065
rtibia 30.2591
rfoot 18.631 -25.225
rtoes -38.2772
lfemur -34.6295 2.74517 -20.9648
ltibia 63.7317
lfoot -5.57956 -1.97675
ltoes 2.53791
2305
root 3.35047 16.8179 32.485 -371.935 73.1624 700.006
lowerback -1.10169 2.11986 3.74865
upperback -3.10121 2.89989 0.619342
thorax -2.41929 1.38677 -1.48671
lowerneck -6.4189 3.62478 -2.38595
upperneck 28.3015 6.35094 0.520857
head 9.93192 3.07688 1.29552
rclavicle -1.54741e-014 -7.55382e-015
rhumerus -37.451 7.39675 -77.846
rradius 26.4211
rwrist -10.6714
rhand -22.5709 28.0991
rfingers 7.12502
rthumb 3.85747 -1.84578
lclavicle -1.54741e-014 -7.55382e-015
lhumerus -42.9194 12.411 73.946
lradius 27.3394
lwrist -32.3163
lhand 4.71626 41.8125
lfingers 7.12502
lthumb 30.0993 69.3817
rfemur -16.8363 14.9432 26.3406
rtibia 30.2226
rfoot 0.935001 -35.1255
rtoes -22.5756
lfemur -35.2246 2.84841 -20.566
ltibia 62.4896
lfoot -6.1575 -1.64999
ltoes 3.40733
2306
root 3.43343 16.8076 32.5355 -373.356 73.3549 698.747
lowerback -0.852286 2.45399 4.3279
upperback -3.11054 3.3576 0.445387
thorax -2.50481 1.59715 -2.00067
lowerneck -6.07906 3.32259 -2.34978
upperneck 29.1609 5.88886 0.997305
head 10.1724 2.93529 1.42583
rclavicle 3.93221e-014 7.95139e-015
rhumerus -37.7578 7.72637 -77.9941
rradius 27.1682
rwrist -12.1921
rhand -21.5659 28.1427
rfingers 7.12502
rthumb 4.82792 -1.78234
lclavicle 3.93221e-014 7.95139e-015
lhumerus -43.0435 11.6997 73.9013
lradius 27.5816
lwrist -31.9156
lhand 5.02208 41.5431
lfingers 7.12502
lthumb 30.391 69.0588
rfemur -16.078 14.9031 26.9507
rtibia 30.1105
rfoot -20.0777 -33.1252
rtoes 17.9762
lfemur -35.4723 3.02119 -20.4063
ltibia 61.0924
lfoot -6.62373 -0.730838
ltoes -3.37478
2307
root 3.51511 16.8114 32.5852 -374.104 73.5988 698.065
lowerback -0.732278 2.5579 4.52364
upperback -3.05013 3.50135 0.441424
thorax -2.48956 1.66497 -2.11829
lowerneck -5.95362 3.22294 -2.58373
upperneck 29.9409 5.76242 1.4131
head 10.4189 2.90907 1.62047
rclavicle 9.75908e-015 3.97569e-015
rhumerus -37.6089 8.35116 -78.0078
rradius 27.6894
rwrist -12.53
rhand -20.3526 28.7197
rfingers 7.12502
rthumb 5.99944 -1.17532
lclavicle 9.75908e-015 3.97569e-015
lhumerus -43.4287 12.2926 73.5693
lradius 28.0744
lwrist -31.9174
lhand 5.17984 41.697
lfingers 7.12502
lthumb 30.5415 69.1849
rfemur -15.463 14.9143 27.3093
rtibia 29.9702
rfoot -20.0618 -33.4707
rtoes 16.4809
lfemur -35.8028 3.06924 -20.4347
ltibia 59.506
lfoot -7.0813 0.221029
ltoes -7.30655
2308
root 3.60322 16.8299 32.6355 -373.849 73.8563 698.232
lowerback -0.947883 2.57585 4.4223
upperback -2.95563 3.508 0.423737
thorax -2.27446 1.67633 -2.06625
lowerneck -5.85883 3.2088 -2.78734
upperneck 30.6029 5.77098 1.70964
head 10.6334 2.93249 1.78089
rclavicle -2.46928e-014 7.95139e-015
rhumerus -36.5783 7.1485 -76.6755
rradius 28.2075
rwrist -14.9927
rhand -13.753 28.6329
rfingers 7.12502
rthumb 12.3673 -0.98128
lclavicle -2.46928e-014 7.95139e-015
lhumerus -43.9545 12.955 73.3525
lradius 28.7685
lwrist -31.5017
lhand 4.93553 41.9112
lfingers 7.12502
lthumb 30.3085 69.4422
rfemur -15.0538 14.9302 27.3367
rtibia 29.8577
rfoot -20.2411 -33.5056
rtoes 15.1219
lfemur -36.1124 3.07241 -20.7193
ltibia 57.6261
lfoot -7.53954 1.43018
ltoes -9.63344
2309
root 3.68714 16.8388 32.6862 -373.796 74.1052 698.374
lowerback -0.991236 2.61075 4.29289
upperback -2.80454 3.54318 0.388715
thorax -2.09641 1.70112 -2.02339
lowerneck -5.65462 3.15661 -2.8063
upperneck 31.0936 5.74391 1.77657
head 10.7793 2.93549 1.81693
rclavicle -1.82074e-014 0
rhumerus -35.6786 5.45588 -75.4947
rradius 28.2378
rwrist -14.7701
rhand -11.3717 29.0292
rfingers 7.12502
rthumb 14.6624 -0.432399
lclavicle -1.82074e-014 0
lhumerus -44.3029 13.6484 73.0248
lradius 29.228
lwrist -31.2752
lhand 4.87059 41.403
lfingers 7.12502
lthumb 30.2465 68.9454
rfemur -14.4773 15.0642 27.4366
rtibia 29.7256
rfoot -16.0553 -35.0883
rtoes 4.50002
lfemur -36.118 3.07281 -20.9506
ltibia 55.4626
lfoot -7.56521 3.15229
ltoes -13.5953
